<svg width="100%" height="100%" viewBox="0 0 24 24" fill="none" xmlns="http://www.w3.org/2000/svg">
<g id="Group">
<path id="Vector" d="M10.177 0.121759C6.18584 0.753118 3 3.08564 1.15044 6.73348C0.690265 7.66298 0 9.52198 0 9.87274C0 10.0569 0.0353982 10.0744 0.557522 10.0744H1.10619L1.40708 9.16246C2.76106 4.98848 5.83186 2.15614 9.95575 1.28802C10.646 1.14772 12.885 1.14772 13.6637 1.28802C15.8584 1.69139 17.9558 2.79626 19.5575 4.37466C21.2743 6.05828 22.3628 8.19788 22.6726 10.5216L22.7788 11.3021H23.3894H24L23.9381 10.7935C23.4956 7.15439 21.4425 3.86606 18.4425 1.96322C15.9558 0.384825 12.8761 -0.299147 10.177 0.121759Z" fill="#E59500"/>
<path id="Vector_2" d="M10.4867 1.83168C9.41594 1.99829 8.52213 2.27889 7.55753 2.74364C4.46019 4.25189 2.43364 6.90886 1.76107 10.355C1.67258 10.8285 1.59293 11.3547 1.59293 11.5213V11.8282H5.53983H9.47789L9.41594 9.15368L9.35399 6.47918H11.9381H14.5133V9.15368V11.8282H18.3186H22.1239V12.2228V12.6174H18.3186H14.5133V14.7219V16.8264H11.9912H9.46904L9.46019 16.6248C9.46019 16.5195 9.45134 15.5813 9.44249 14.5465L9.42479 12.6612L5.58408 12.6349C3.46904 12.6262 1.70797 12.6437 1.68143 12.6788C1.57523 12.8015 1.83187 14.3887 2.07966 15.1604C2.67258 17.0106 3.93806 18.7468 5.57523 19.9745C6.34514 20.5444 7.79647 21.3424 8.71682 21.6932C9.06196 21.8247 9.49559 21.9825 9.69028 22.0615C9.88497 22.1316 10.4779 22.307 11 22.4385C11.531 22.5788 11.9912 22.7191 12.0177 22.7454C12.0974 22.8331 10.7168 22.7104 9.93806 22.57C6.94691 22.0088 3.92036 19.9482 2.66373 17.6069C2.45134 17.221 2.23895 16.9229 2.177 16.9404C2.1239 16.958 1.87612 17.0544 1.61948 17.1421L1.16815 17.3L1.43364 17.8349C1.92036 18.7819 2.50444 19.5711 3.36284 20.4217C5.03541 22.079 7.29205 23.3066 9.55753 23.7977C10.6106 24.0257 12.7168 24.0695 13.8142 23.8854C15.3717 23.6311 16.9027 23.0611 18.0974 22.307C18.3805 22.1228 18.6726 21.9738 18.7345 21.9738C18.7965 21.9738 18.8496 21.9387 18.8496 21.9124C18.8496 21.8773 19.0797 21.6756 19.3628 21.4652C21.6018 19.7991 23.177 17.335 23.7699 14.5641C24.0708 13.1786 24.0974 13.2663 23.3894 13.3189C22.8053 13.3627 22.7876 13.3715 22.7345 13.6258C22.6991 13.7661 22.6726 13.2487 22.6637 12.4683C22.6549 11.3108 22.6195 10.9075 22.469 10.3638C22.2566 9.6009 21.9469 8.89062 21.5929 8.36449C21.4602 8.17157 21.177 7.68052 20.9646 7.26838C19.5664 4.58511 16.9115 2.60334 13.8496 1.95445C13.0797 1.79661 11.1947 1.72646 10.4867 1.83168ZM22.6283 14.1256C22.6018 14.1958 22.5752 14.1695 22.5752 14.073C22.5664 13.9766 22.5929 13.9239 22.6195 13.959C22.646 13.9853 22.6549 14.0642 22.6283 14.1256Z" fill="#E59500"/>
<path id="Vector_3" d="M10.0885 11.609V16.0372L11.9558 16.0197L13.8142 15.9934L13.8584 12.0474C13.885 9.8815 13.885 7.89973 13.8496 7.64543L13.7965 7.18069H11.9381H10.0885V11.609ZM12.3009 11.6967V14.4588H11.9469H11.5929V11.6967V8.93446H11.9469H12.3009V11.6967Z" fill="#E59500"/>
</g>
</svg>
