<svg width="350" height="312" viewBox="0 0 350 312" fill="none" xmlns="http://www.w3.org/2000/svg">
<g clip-path="url(#clip0_113_68)">
<path d="M286.561 65.2222C266.212 84.1616 239.258 96.3131 211.571 99.2273C208.854 99.5152 206.13 99.7121 203.399 99.8182C202.793 99.8435 202.187 99.8586 201.576 99.8738C200.586 99.899 199.591 99.9091 198.601 99.9091C197.414 99.9091 196.227 99.8923 195.04 99.8586C188.17 99.6582 181.327 98.91 174.576 97.6212C174.328 97.5707 174.086 97.5253 173.838 97.4748C172.773 97.2677 171.71 97.0455 170.652 96.8081C168.621 96.3586 166.601 95.8603 164.591 95.3131C163.939 95.1364 163.288 94.9546 162.636 94.7626C161.702 94.495 160.773 94.2121 159.843 93.9243C159.495 93.8131 159.146 93.7071 158.798 93.5909C158.444 93.4798 158.091 93.3637 157.737 93.2424C155.581 92.5354 153.443 91.7677 151.323 90.9394C139.252 86.2759 127.952 79.8214 117.803 71.7929C116.399 70.6768 114.975 69.5051 113.601 68.3687C106.217 62.2778 98.5808 55.9798 89.2727 54.6061C79.2222 53.1263 69.5657 57.702 60.2323 62.1263C57.0657 63.6263 53.7929 65.1768 50.5556 66.4748C34.7521 72.6998 17.3354 73.5325 1.0101 68.8434C0.671717 68.7525 0.333333 68.6515 0 68.5505V67.495C0.333333 67.596 0.671717 67.697 1.0101 67.7929C17.1985 72.5056 34.4933 71.7116 50.1818 65.5354C53.3889 64.2525 56.6515 62.7071 59.803 61.2121C69.2727 56.7222 79.0657 52.0808 89.4192 53.6061C99.0051 55.0202 106.753 61.4091 114.242 67.5909C115.616 68.7222 117.035 69.894 118.429 71.0051C128.511 78.9821 139.738 85.3926 151.732 90.0202H151.737C153.768 90.8081 155.823 91.5505 157.889 92.2374C158.187 92.3334 158.485 92.4293 158.783 92.5303C159.116 92.6364 159.455 92.7424 159.788 92.8485C160.641 93.1212 161.497 93.3805 162.354 93.6263C163.192 93.8788 164.035 94.1179 164.884 94.3434H164.889C167.061 94.9344 169.246 95.468 171.444 95.9445C172.439 96.1667 173.434 96.3687 174.439 96.5606C174.657 96.6061 174.879 96.6465 175.101 96.6869C181.578 97.9092 188.139 98.6285 194.727 98.8384H194.732C197.02 98.9091 199.305 98.9175 201.586 98.8637C202.182 98.8485 202.773 98.8283 203.364 98.8081C205.944 98.7071 208.522 98.5253 211.096 98.2626H211.101C238.702 95.4394 265.591 83.3586 285.874 64.4798C285.972 64.3894 286.103 64.3417 286.236 64.3471C286.37 64.3526 286.496 64.4108 286.587 64.509C286.678 64.6072 286.726 64.7374 286.721 64.871C286.716 65.0047 286.658 65.131 286.561 65.2222Z" fill="#E59500"/>
<path d="M0.156564 45.9293C0.125476 46.0586 0.0725267 46.1815 0 46.2929V44.8839C0.184422 45.1993 0.240478 45.5736 0.156564 45.9293Z" fill="#FF6584"/>
<path d="M4.14181 51.2788C4.24315 50.3719 3.81386 49.5795 3.18296 49.509C2.55206 49.4385 1.95847 50.1166 1.85713 51.0235C1.7558 51.9304 2.18509 52.7228 2.81599 52.7933C3.44688 52.8638 4.04048 52.1857 4.14181 51.2788Z" fill="#E6E6E6"/>
<path d="M5.54733 61.9898C5.64867 61.0829 5.21937 60.2906 4.58847 60.2201C3.95758 60.1496 3.36398 60.8276 3.26265 61.7345C3.16131 62.6415 3.59061 63.4338 4.2215 63.5043C4.8524 63.5748 5.44599 62.8967 5.54733 61.9898Z" fill="#3F3D56"/>
<path d="M255.031 147.407C255.277 146.433 254.343 145.356 252.943 145.002C251.543 144.647 250.209 145.149 249.962 146.123C249.715 147.096 250.65 148.173 252.049 148.528C253.449 148.882 254.784 148.381 255.031 147.407Z" fill="white"/>
<path d="M237.938 147.297C238.185 146.323 237.25 145.246 235.85 144.892C234.451 144.537 233.116 145.039 232.869 146.012C232.622 146.986 233.557 148.063 234.957 148.418C236.356 148.772 237.691 148.271 237.938 147.297Z" fill="#3F3D56"/>
<path d="M258.238 161.588C258.485 160.614 257.55 159.537 256.151 159.183C254.751 158.828 253.416 159.33 253.169 160.304C252.923 161.277 253.857 162.354 255.257 162.709C256.657 163.064 257.991 162.562 258.238 161.588Z" fill="#FF6584"/>
<path d="M262.223 166.935C262.324 166.028 261.895 165.236 261.264 165.166C260.633 165.095 260.039 165.773 259.938 166.68C259.837 167.587 260.266 168.379 260.897 168.45C261.528 168.52 262.121 167.842 262.223 166.935Z" fill="#E6E6E6"/>
<path d="M263.628 177.646C263.729 176.74 263.3 175.947 262.669 175.877C262.038 175.806 261.445 176.484 261.343 177.391C261.242 178.298 261.671 179.09 262.302 179.161C262.933 179.231 263.527 178.553 263.628 177.646Z" fill="#3F3D56"/>
<path d="M246.153 157.234C246.255 156.327 245.825 155.535 245.194 155.465C244.563 155.394 243.97 156.072 243.869 156.979C243.767 157.886 244.197 158.678 244.827 158.749C245.458 158.819 246.052 158.141 246.153 157.234Z" fill="#E6E6E6"/>
<path d="M254.755 154.003C254.856 153.096 254.427 152.303 253.796 152.233C253.165 152.162 252.572 152.841 252.47 153.747C252.369 154.654 252.798 155.447 253.429 155.517C254.06 155.588 254.654 154.91 254.755 154.003Z" fill="#FF6584"/>
<path d="M244.158 145.272C244.259 144.365 243.83 143.573 243.199 143.502C242.568 143.432 241.975 144.11 241.873 145.017C241.772 145.924 242.201 146.716 242.832 146.787C243.463 146.857 244.057 146.179 244.158 145.272Z" fill="#3F3D56"/>
<path d="M25.2326 27.71C25.4793 26.7363 24.5447 25.6595 23.145 25.3048C21.7453 24.95 20.4106 25.4518 20.1639 26.4255C19.9171 27.3992 20.8518 28.4761 22.2514 28.8308C23.6511 29.1855 24.9858 28.6837 25.2326 27.71Z" fill="white"/>
<path d="M8.13981 27.5998C8.38657 26.6261 7.45195 25.5493 6.05227 25.1946C4.6526 24.8398 3.31791 25.3416 3.07115 26.3153C2.82439 27.289 3.75902 28.3659 5.15869 28.7206C6.55837 29.0753 7.89306 28.5735 8.13981 27.5998Z" fill="#3F3D56"/>
<path d="M28.4401 41.8911C28.6869 40.9174 27.7523 39.8405 26.3526 39.4858C24.9529 39.1311 23.6182 39.6329 23.3715 40.6065C23.1247 41.5802 24.0593 42.6571 25.459 43.0118C26.8587 43.3665 28.1934 42.8648 28.4401 41.8911Z" fill="#FF6584"/>
<path d="M32.4246 47.2384C32.526 46.3315 32.0967 45.5391 31.4658 45.4686C30.8349 45.3981 30.2413 46.0762 30.14 46.9831C30.0386 47.89 30.4679 48.6824 31.0988 48.7529C31.7297 48.8234 32.3233 48.1453 32.4246 47.2384Z" fill="#E6E6E6"/>
<path d="M33.8302 57.9494C33.9315 57.0425 33.5022 56.2502 32.8713 56.1797C32.2404 56.1092 31.6468 56.7872 31.5455 57.6941C31.4441 58.601 31.8734 59.3934 32.5043 59.4639C33.1352 59.5344 33.7288 58.8563 33.8302 57.9494Z" fill="#3F3D56"/>
<path d="M16.3553 37.5373C16.4566 36.6304 16.0273 35.8381 15.3964 35.7676C14.7655 35.6971 14.1719 36.3751 14.0706 37.282C13.9692 38.1889 14.3985 38.9813 15.0294 39.0518C15.6603 39.1223 16.2539 38.4442 16.3553 37.5373Z" fill="#E6E6E6"/>
<path d="M24.9571 34.3058C25.0585 33.3989 24.6292 32.6065 23.9983 32.536C23.3674 32.4655 22.7738 33.1436 22.6724 34.0505C22.5711 34.9574 23.0004 35.7497 23.6313 35.8202C24.2622 35.8907 24.8558 35.2127 24.9571 34.3058Z" fill="#FF6584"/>
<path d="M14.36 25.5752C14.4613 24.6683 14.0321 23.876 13.4012 23.8055C12.7703 23.735 12.1767 24.413 12.0753 25.3199C11.974 26.2268 12.4033 27.0192 13.0342 27.0897C13.6651 27.1602 14.2587 26.4821 14.36 25.5752Z" fill="#3F3D56"/>
<path d="M79.9863 100.048C81.102 100.048 82.0065 99.1437 82.0065 98.028C82.0065 96.9122 81.102 96.0078 79.9863 96.0078C78.8705 96.0078 77.9661 96.9122 77.9661 98.028C77.9661 99.1437 78.8705 100.048 79.9863 100.048Z" fill="white"/>
<path d="M30.4913 119.24C31.0492 119.24 31.5014 118.788 31.5014 118.23C31.5014 117.672 31.0492 117.22 30.4913 117.22C29.9334 117.22 29.4812 117.672 29.4812 118.23C29.4812 118.788 29.9334 119.24 30.4913 119.24Z" fill="white"/>
<path d="M230.996 194.493C231.554 194.493 232.006 194.04 232.006 193.483C232.006 192.925 231.554 192.472 230.996 192.472C230.439 192.472 229.986 192.925 229.986 193.483C229.986 194.04 230.439 194.493 230.996 194.493Z" fill="white"/>
<path d="M100.693 148.028C101.251 148.028 101.703 147.576 101.703 147.018C101.703 146.46 101.251 146.008 100.693 146.008C100.135 146.008 99.6832 146.46 99.6832 147.018C99.6832 147.576 100.135 148.028 100.693 148.028Z" fill="white"/>
<path d="M118.875 42.4724C119.433 42.4724 119.885 42.0201 119.885 41.4623C119.885 40.9044 119.433 40.4522 118.875 40.4522C118.317 40.4522 117.865 40.9044 117.865 41.4623C117.865 42.0201 118.317 42.4724 118.875 42.4724Z" fill="white"/>
<path d="M284.027 81.3613C284.585 81.3613 285.037 80.909 285.037 80.3512C285.037 79.7933 284.585 79.3411 284.027 79.3411C283.469 79.3411 283.017 79.7933 283.017 80.3512C283.017 80.909 283.469 81.3613 284.027 81.3613Z" fill="white"/>
<path d="M49.1782 28.836C49.7361 28.836 50.1883 28.3838 50.1883 27.8259C50.1883 27.2681 49.7361 26.8158 49.1782 26.8158C48.6203 26.8158 48.1681 27.2681 48.1681 27.8259C48.1681 28.3838 48.6203 28.836 49.1782 28.836Z" fill="white"/>
<path d="M233.017 23.7855C234.132 23.7855 235.037 22.881 235.037 21.7653C235.037 20.6496 234.132 19.7451 233.017 19.7451C231.901 19.7451 230.996 20.6496 230.996 21.7653C230.996 22.881 231.901 23.7855 233.017 23.7855Z" fill="white"/>
<path d="M323.419 290.202H322.409C322.409 284.374 316.949 278.672 306.177 273.253C295.636 267.949 280.525 263.182 261.273 259.086C258.424 258.48 255.51 257.894 252.53 257.328C237.116 254.399 219.99 252 201.646 250.177C197.854 249.798 194.007 249.446 190.106 249.121C188.843 249.01 187.571 248.909 186.293 248.803C182.742 248.525 179.155 248.266 175.53 248.025C156.611 246.773 136.747 246.091 116.414 246.02C115.217 246.01 114.015 246.01 112.813 246.01C86.3333 246.01 80.3535 248.51 80 250.611C79.096 255.924 109.722 266.596 139.338 276.924C172.121 288.348 205.813 300.096 217.288 310.101C217.677 310.439 218.04 310.778 218.379 311.111H216.99C216.621 310.778 216.222 310.439 215.798 310.101C203.682 300.424 169.697 288.576 139.005 277.874C101.157 264.682 78.0101 256.298 79 250.439C79.4293 247.904 83.6616 245 112.813 245C113.768 245 114.727 245 115.682 245.005C136.01 245.061 155.874 245.727 174.813 246.97C178.515 247.207 182.18 247.47 185.808 247.758C187.157 247.864 188.5 247.97 189.838 248.086C193.838 248.419 197.786 248.779 201.682 249.167C220.51 251.035 238.071 253.51 253.818 256.545C256.424 257.051 258.98 257.569 261.485 258.101C301.424 266.596 323.419 277.995 323.419 290.202Z" fill="#E6E6E6"/>
<path d="M307.764 287.767H306.754C306.754 283.454 289.134 278.836 262.903 278.836C236.673 278.836 219.052 283.454 219.052 287.767H218.042C218.042 281.544 240.852 277.826 262.903 277.826C284.955 277.826 307.764 281.544 307.764 287.767Z" fill="#E6E6E6"/>
<path d="M290.139 290.705H289.129C289.129 288.269 278.419 285.554 263.05 285.554C247.681 285.554 236.971 288.269 236.971 290.705H235.961C235.961 286.703 249.918 284.544 263.05 284.544C276.182 284.544 290.139 286.703 290.139 290.705Z" fill="#E6E6E6"/>
<path d="M182.006 67.7249C193.164 67.7249 202.208 58.6802 202.208 47.5229C202.208 36.3656 193.164 27.3209 182.006 27.3209C170.849 27.3209 161.804 36.3656 161.804 47.5229C161.804 58.6802 170.849 67.7249 182.006 67.7249Z" fill="#F2F2F2"/>
<path d="M178.976 69.2401C190.133 69.2401 199.178 60.1953 199.178 49.0381C199.178 37.8808 190.133 28.836 178.976 28.836C167.819 28.836 158.774 37.8808 158.774 49.0381C158.774 60.1953 167.819 69.2401 178.976 69.2401Z" fill="#F2F2F2"/>
<path d="M201.198 270.223L182.263 270.222V269.982C182.263 268.028 183.039 266.153 184.421 264.771C185.804 263.389 187.678 262.612 189.633 262.612L193.092 259.988L199.545 262.613L201.198 262.613L201.198 270.223Z" fill="#F2F2F2"/>
<path d="M192.383 259.995L176.205 269.835L176.081 269.631C175.065 267.961 174.754 265.955 175.217 264.056C175.68 262.157 176.878 260.52 178.548 259.504L180.139 255.464L187.017 254.353L188.429 253.494L192.383 259.995Z" fill="#F2F2F2"/>
<path d="M203.506 206.346C203.421 206.952 203.294 209.013 203.148 212.013C202.436 226.558 201.198 263.179 201.198 263.179L193.486 260.78C193.486 260.78 184.315 233.114 185.83 217.962L184.739 212.69L182.87 203.679V203.674L177.178 176.235C177.178 176.235 175.931 183.669 175.83 185.412C175.729 187.154 174.719 187.659 174.214 187.659C171.683 187.659 172.461 187.21 172.83 189.71C173.097 191.508 170.905 201.816 169.653 207.452C169.168 209.644 168.825 211.129 168.825 211.129L170.966 215.745L188.719 254.028L182.006 257.624L155.229 217.937L152.587 214.023L152.022 209.634L147.567 175.104C147.567 175.104 146.178 171.2 147.567 171.099C148.961 170.993 149.749 171.432 149.355 169.952C148.961 168.467 157.042 143.72 157.042 143.72L198.961 152.811C198.961 152.811 203.092 161.023 201.486 164.932C199.875 168.841 202.804 199.114 201.133 200.457C199.466 201.801 198.39 200.725 200.693 203.033C201.046 203.401 201.461 203.702 201.921 203.922C203.345 204.568 203.911 203.518 203.506 206.346Z" fill="#F2F2F2"/>
<path d="M178.845 61.6241C185.276 61.6241 190.489 56.4107 190.489 49.9798C190.489 43.5488 185.276 38.3355 178.845 38.3355C172.414 38.3355 167.201 43.5488 167.201 49.9798C167.201 56.4107 172.414 61.6241 178.845 61.6241Z" fill="#A0616A"/>
<path d="M187.919 60.0082L183.303 60.892C183.303 60.892 187.596 53.9627 187.343 50.791C187.091 47.6193 183.636 46.4829 183.636 46.4829C183.636 46.4829 181.722 46.8971 179.707 47.1294C179.466 46.4498 179.152 45.798 178.773 45.185C178.698 45.9764 178.347 46.7164 177.783 47.2759C177.044 47.3393 176.3 47.2534 175.596 47.0233C174.798 46.6597 174.813 46.0284 175.076 45.4375C172.475 45.6521 169.936 46.3492 167.591 47.493C167.475 45.9425 167.534 44.3838 167.767 42.8466C167.879 42.8163 167.99 42.7809 168.101 42.7456C168.789 42.5278 169.453 42.2383 170.081 41.8819C169.382 41.7892 168.729 41.4822 168.212 41.0031C168.636 39.7607 169.313 38.6849 170.379 38.1597C171.407 37.6569 172.531 37.3809 173.675 37.3504C174.819 37.3199 175.956 37.5356 177.01 37.9829C177.01 37.9829 174.54 36.1799 175.449 35.4425C175.51 35.5031 175.571 35.5587 175.636 35.6142C175.722 35.6849 175.818 35.7607 175.909 35.8314C176.469 36.286 177.308 35.6445 177.419 34.9577C177.431 34.8709 177.448 34.7849 177.47 34.7001C177.485 34.6294 177.505 34.5587 177.525 34.493C177.542 34.4348 177.562 34.3774 177.586 34.3213C179.267 33.9173 184.353 35.5587 186.308 39.1748C186.308 39.1748 199.969 45.7405 187.919 60.0082Z" fill="#3F3D56"/>
<path d="M183.701 163.826C183.532 162.663 183.825 161.48 184.515 160.529C185.206 159.578 186.24 158.934 187.398 158.734C187.634 158.697 187.873 158.679 188.112 158.682L200.287 130.408L208.639 136.679L192.378 163.464C192.291 164.454 191.879 165.387 191.206 166.118C190.533 166.849 189.637 167.337 188.657 167.506C188.099 167.596 187.529 167.576 186.978 167.445C186.428 167.315 185.909 167.078 185.45 166.747C184.991 166.417 184.602 165.999 184.305 165.518C184.008 165.037 183.809 164.502 183.718 163.943C183.712 163.905 183.706 163.866 183.701 163.826Z" fill="#E59500"/>
<path d="M149.594 166.131C150.414 165.288 150.872 164.159 150.871 162.984C150.871 161.809 150.412 160.68 149.592 159.838C149.422 159.669 149.239 159.515 149.044 159.377L155.789 129.341L145.346 129.513L142.784 160.743C142.273 161.595 142.058 162.593 142.174 163.58C142.289 164.567 142.728 165.488 143.422 166.199C143.821 166.6 144.295 166.918 144.816 167.136C145.338 167.354 145.898 167.467 146.463 167.469C147.029 167.47 147.589 167.36 148.112 167.145C148.635 166.93 149.111 166.614 149.512 166.216C149.54 166.188 149.567 166.16 149.594 166.131Z" fill="#E59500"/>
<path d="M216.89 115.851C215.375 117.871 213.355 115.594 215.375 118.503C216.764 120.503 208.804 139.25 203.709 150.735C201.405 155.932 199.683 159.644 199.683 159.644L191.092 154.669L190.087 154.089C190.087 154.089 197.966 134.26 200.501 127.134C200.921 125.952 201.198 125.119 201.264 124.786C201.739 122.417 201.799 120.387 201.264 119.634C201.137 119.354 201.03 119.065 200.941 118.77C199.926 115.796 196.835 105.75 193.941 96.2501C193.097 93.4623 192.264 90.7249 191.506 88.2249C189.562 81.8057 188.102 76.9623 188.102 76.9623L199.719 77.4673C199.719 77.4673 199.911 77.7906 200.249 78.3764C201.057 79.7704 202.714 82.6441 204.633 86.0986C206.017 88.5835 207.542 91.3764 208.981 94.1239C212.648 101.114 215.804 107.846 214.87 108.78C212.85 110.801 210.784 109.654 213.33 112.245C215.88 114.841 218.405 113.831 216.89 115.851Z" fill="#F2F2F2"/>
<path d="M203 142.71C199.969 139.71 200.53 126.038 200.53 126.038C200.53 126.038 203.545 80.1294 199.464 77.0536C196.643 75.0171 193.64 73.2437 190.495 71.7557C190.313 71.6749 190.217 71.6294 190.217 71.6294L187.611 64.2809L171.555 63.4476L168.752 68.892C168.752 68.892 168.313 68.9223 167.626 69.0183C165.06 69.3718 159.03 70.6243 159.565 74.5284C160.242 79.4779 155.464 109.877 154.01 111.397C152.555 112.917 152.939 118.473 156.535 122.003C160.131 125.533 157.545 135.134 155.02 139.175C153.504 141.648 152.805 144.535 153.02 147.427C153.02 147.427 155.02 158.367 160.071 154.831C161.995 153.483 164.727 153.311 168.015 153.559C168.047 153.561 168.082 153.565 168.114 153.568L168.015 154.064C172.581 154.402 178.222 155.549 184.257 155.483L184.079 154.976C184.139 154.975 184.197 154.979 184.257 154.978C185.278 154.968 186.303 154.922 187.343 154.831C196.343 154.049 200.318 156.523 201.485 153.821C202.651 151.119 206.03 145.71 203 142.71Z" fill="#F2F2F2"/>
<path opacity="0.3" d="M178.976 64.1896C187.344 64.1896 194.128 57.406 194.128 49.0381C194.128 40.6701 187.344 33.8865 178.976 33.8865C170.608 33.8865 163.825 40.6701 163.825 49.0381C163.825 57.406 170.608 64.1896 178.976 64.1896Z" fill="#E59500"/>
<path d="M171.688 71.9118C171.688 71.9118 169.385 79.5582 166.703 88.3815C165.86 91.1592 164.976 94.0532 164.118 96.8663C161.315 106.013 158.759 114.255 158.522 114.584C157.986 115.336 158.052 117.366 158.522 119.735C158.618 120.21 158.4 122.058 157.991 124.71C157.456 128.19 156.592 133.048 155.673 138.008C154.941 141.972 154.173 145.998 153.512 149.427C152.476 154.75 151.703 158.634 151.703 158.634H142.107C142.107 158.634 143.911 118.376 145.931 115.472C147.951 112.563 145.931 114.841 144.416 112.821C142.9 110.801 145.426 111.811 147.971 109.215C150.517 106.624 148.456 107.77 146.436 105.75C145.688 105.003 147.36 100.24 149.764 94.5381C150.885 91.8916 152.163 89.0381 153.426 86.2906C156.037 80.6189 158.597 75.4017 159.613 73.3411C159.613 73.3361 159.618 73.331 159.618 73.326L160.072 72.4169L171.688 71.9118Z" fill="#F2F2F2"/>
<path d="M192.613 73.7855C182.068 77.8814 172.587 78.5874 164.835 73.7855V64.6946C173.964 70.1726 183.227 70.0228 192.613 64.6946V73.7855Z" fill="#3F3D56"/>
<path d="M200.693 131.866C184.397 135.962 169.744 136.668 157.764 131.866V122.775C171.874 128.253 186.189 128.104 200.693 122.775V131.866Z" fill="#3F3D56"/>
<path d="M203.506 206.346C203.421 206.952 203.294 209.013 203.148 212.013C197.063 212.999 190.88 213.226 184.739 212.69L182.87 203.679C189.162 204.828 195.602 204.91 201.921 203.922C203.345 204.568 203.91 203.518 203.506 206.346Z" fill="#3F3D56"/>
<path d="M170.966 215.745C165.788 216.897 160.525 217.63 155.229 217.937L152.587 214.023L152.022 209.634C157.975 209.787 163.917 209.052 169.653 207.452C169.168 209.644 168.825 211.129 168.825 211.129L170.966 215.745Z" fill="#3F3D56"/>
<path d="M172.411 92.9775C172.411 94.3169 171.878 95.6016 170.931 96.5487C169.984 97.4959 168.699 98.028 167.36 98.028C166.021 98.028 164.736 97.4959 163.789 96.5487C162.842 95.6016 162.309 94.3169 162.309 92.9775C162.309 90.1881 166.855 84.3916 167.36 87.9269C167.865 91.4623 172.411 90.1881 172.411 92.9775Z" fill="#E59500"/>
<path d="M167.909 84.4142C167.727 84.399 167.545 84.394 167.359 84.394C165.16 84.3967 163.046 85.2415 161.451 86.7548C159.856 88.2681 158.901 90.3348 158.783 92.5303C158.778 92.6768 158.773 92.8283 158.773 92.9798C158.773 93.1869 158.778 93.3889 158.798 93.5909C158.925 95.3887 159.615 97.1009 160.77 98.4845C161.925 99.868 163.486 100.853 165.233 101.299C166.979 101.745 168.821 101.63 170.498 100.97C172.175 100.309 173.602 99.1379 174.576 97.6212C174.771 97.3218 174.947 97.0096 175.101 96.6869C175.708 95.4205 175.995 94.0245 175.937 92.6213C175.879 91.2181 175.477 89.8507 174.767 88.639C174.057 87.4273 173.06 86.4085 171.865 85.6718C170.669 84.9352 169.311 84.5034 167.909 84.4142ZM173.838 97.4748C173.046 98.4274 172.056 99.1963 170.938 99.7283C169.819 100.26 168.597 100.543 167.359 100.556C165.514 100.553 163.733 99.8781 162.35 98.6575C160.967 97.437 160.076 95.7543 159.843 93.9243C159.803 93.6111 159.783 93.2956 159.783 92.9798C159.782 92.936 159.784 92.8921 159.788 92.8485C159.823 90.8631 160.635 88.9706 162.051 87.5784C163.467 86.1861 165.373 85.4053 167.359 85.4041C167.404 85.5253 167.45 85.6414 167.5 85.7525C169.657 90.8535 174.333 90.4697 174.934 92.9798C175.225 94.1932 175.048 95.4716 174.439 96.5606C174.268 96.8835 174.067 97.1896 173.838 97.4748Z" fill="#E59500"/>
</g>
<defs>
<clipPath id="clip0_113_68">
<rect width="350" height="311.111" fill="white"/>
</clipPath>
</defs>
</svg>
