<?xml version="1.0" standalone="no"?>
<!DOCTYPE svg PUBLIC "-//W3C//DTD SVG 20010904//EN"
 "http://www.w3.org/TR/2001/REC-SVG-20010904/DTD/svg10.dtd">
<svg version="1.0" xmlns="http://www.w3.org/2000/svg"
 width="512.000000pt" height="512.000000pt" viewBox="0 0 512.000000 512.000000"
 preserveAspectRatio="xMidYMid meet">

<g transform="translate(0.000000,512.000000) scale(0.100000,-0.100000)"
fill="#000000" stroke="none">
<path d="M2370 3935 c-451 -72 -811 -338 -1020 -754 -52 -106 -130 -318 -130
-358 0 -21 4 -23 63 -23 l62 0 34 104 c153 476 500 799 966 898 78 16 331 16
419 0 248 -46 485 -172 666 -352 194 -192 317 -436 352 -701 l12 -89 69 0 69
0 -7 58 c-50 415 -282 790 -621 1007 -281 180 -629 258 -934 210z"/>
<path d="M2405 3740 c-121 -19 -222 -51 -331 -104 -350 -172 -579 -475 -655
-868 -10 -54 -19 -114 -19 -133 l0 -35 446 0 445 0 -7 305 -7 305 292 0 291 0
0 -305 0 -305 430 0 430 0 0 -45 0 -45 -430 0 -430 0 0 -240 0 -240 -285 0
-285 0 -1 23 c0 12 -1 119 -2 237 l-2 215 -434 3 c-239 1 -438 -1 -441 -5 -12
-14 17 -195 45 -283 67 -211 210 -409 395 -549 87 -65 251 -156 355 -196 39
-15 88 -33 110 -42 22 -8 89 -28 148 -43 60 -16 112 -32 115 -35 9 -10 -147 4
-235 20 -338 64 -680 299 -822 566 -24 44 -48 78 -55 76 -6 -2 -34 -13 -63
-23 l-51 -18 30 -61 c55 -108 121 -198 218 -295 189 -189 444 -329 700 -385
119 -26 357 -31 481 -10 176 29 349 94 484 180 32 21 65 38 72 38 7 0 13 4 13
7 0 4 26 27 58 51 253 190 431 471 498 787 34 158 37 148 -43 142 -66 -5 -68
-6 -74 -35 -4 -16 -7 43 -8 132 -1 132 -5 178 -22 240 -24 87 -59 168 -99 228
-15 22 -47 78 -71 125 -158 306 -458 532 -804 606 -87 18 -300 26 -380 14z
m1372 -1402 c-3 -8 -6 -5 -6 6 -1 11 2 17 5 13 3 -3 4 -12 1 -19z"/>
<path d="M2360 2625 l0 -505 211 2 210 3 5 450 c3 247 3 473 -1 502 l-6 53
-210 0 -209 0 0 -505z m250 -10 l0 -315 -40 0 -40 0 0 315 0 315 40 0 40 0 0
-315z"/>
</g>
</svg>
