<svg width="374" height="271" viewBox="0 0 374 271" fill="none" xmlns="http://www.w3.org/2000/svg">
<g clip-path="url(#clip0_110_3)">
<path d="M217.854 47.7741C224.864 47.7741 230.546 42.113 230.546 35.1297C230.546 28.1463 224.864 22.4852 217.854 22.4852C210.845 22.4852 205.163 28.1463 205.163 35.1297C205.163 42.113 210.845 47.7741 217.854 47.7741Z" fill="#F2F2F2"/>
<path d="M316.308 235.433C335.173 221.117 344.183 197.062 338.542 174.115C338.402 173.544 338.254 172.976 338.098 172.408C334.359 158.787 325.107 145.841 311.622 141.488C300.3 137.834 287.942 140.644 276.13 139.191C252.942 136.338 234.966 117.647 222.317 98.0766C209.668 78.5064 199.947 56.6004 183.139 40.4326C155.435 13.7827 110.242 8.04491 75.892 25.392C41.5424 42.7392 19.662 81.2253 20.5951 119.581C21.5283 157.938 44.3837 194.609 77.5754 214.065C89.7687 221.213 103.871 226.276 117.906 224.504C130.084 222.967 141.15 216.448 153.27 214.512C172.327 211.469 191.262 220.053 207.745 230.057C224.227 240.06 240.148 251.916 258.878 256.553C277.065 261.056 299.597 248.114 316.308 235.433Z" fill="#F2F2F2"/>
<path d="M289.204 26.1975C288.79 25.9228 288.372 25.6623 287.958 25.3972C276.004 17.7803 263.191 11.5924 249.785 6.96135L246.676 49.6862H226.969V0.724528C225.728 0.468804 224.478 0.227287 223.228 -2.28882e-05V49.6862H199.808C186.915 49.6862 174.551 44.5836 165.434 35.501C156.318 26.4184 151.196 14.0997 151.196 1.25497C149.941 1.5249 148.696 1.81374 147.451 2.12155V49.6862H128.375L125.414 8.94559C111.637 14.2098 98.5566 21.1326 86.4655 29.5598C86.2564 29.7019 86.0472 29.8486 85.8429 29.9907C84.7924 30.7247 83.7562 31.473 82.7247 32.2307V195.226H138.942L137.949 181.517L132.482 106.244H242.564L237.098 181.517L236.105 195.226H291.699V27.8455C290.872 27.2867 290.04 26.7374 289.204 26.1975ZM147.451 93.8128H131.579L128.646 53.4179H147.451V93.8128ZM223.228 93.8128H196.571V93.0124C196.571 92.6277 196.495 92.2468 196.347 91.8914C196.199 91.536 195.983 91.2131 195.709 90.9413C195.436 90.6695 195.112 90.454 194.755 90.3072C194.398 90.1604 194.015 90.0852 193.629 90.0858H182.04C181.655 90.0857 181.273 90.1613 180.916 90.3083C180.56 90.4553 180.236 90.6709 179.963 90.9427C179.69 91.2145 179.474 91.5372 179.326 91.8923C179.179 92.2474 179.103 92.6281 179.103 93.0124V93.8128H151.196V53.4179H223.228V93.8128ZM226.969 93.8128V53.4179H246.405L243.472 93.8128H226.969Z" fill="#3F3D56"/>
<path d="M-1.52588e-05 205.664C4.12931 210.539 8.59564 215.12 13.3663 219.374L360.634 219.847C365.404 215.593 369.871 211.012 374 206.138L-1.52588e-05 205.664Z" fill="#3F3D56"/>
<path d="M235.493 161.765V202.351C235.494 202.868 235.7 203.364 236.067 203.73C236.434 204.096 236.932 204.301 237.451 204.302H297.82C298.339 204.301 298.837 204.096 299.204 203.73C299.571 203.364 299.778 202.868 299.778 202.351V161.765C299.777 161.248 299.57 160.753 299.203 160.388C298.836 160.023 298.339 159.817 297.82 159.816H237.451C236.932 159.817 236.435 160.023 236.068 160.388C235.701 160.753 235.494 161.248 235.493 161.765Z" fill="#3F3D56"/>
<path d="M236.909 162.27V201.851C236.91 202.127 237.02 202.392 237.216 202.587C237.413 202.783 237.679 202.893 237.956 202.893H297.318C297.595 202.893 297.861 202.783 298.057 202.587C298.253 202.392 298.364 202.127 298.364 201.851V162.27C298.364 161.993 298.254 161.728 298.058 161.532C297.862 161.336 297.596 161.226 297.318 161.225H237.956C237.678 161.226 237.412 161.336 237.216 161.532C237.02 161.728 236.91 161.993 236.909 162.27Z" fill="#E59500"/>
<path d="M234.231 210.267C234.341 210.405 234.482 210.516 234.642 210.592C234.802 210.669 234.977 210.708 235.154 210.707H299.796C299.972 210.707 300.147 210.667 300.306 210.591C300.466 210.515 300.607 210.405 300.718 210.268C300.829 210.132 300.909 209.972 300.95 209.801C300.992 209.629 300.995 209.451 300.958 209.279L299.955 204.53C299.913 204.337 299.824 204.156 299.694 204.006C299.565 203.856 299.4 203.74 299.214 203.669C299.08 203.617 298.937 203.59 298.792 203.59H236.154C236.009 203.59 235.866 203.617 235.732 203.669C235.546 203.74 235.381 203.856 235.252 204.006C235.122 204.156 235.033 204.337 234.991 204.53L233.988 209.279C233.952 209.451 233.955 209.629 233.997 209.8C234.039 209.971 234.119 210.13 234.231 210.267Z" fill="#2F2E41"/>
<path d="M296.574 205.635H298.101C298.229 205.635 298.333 205.532 298.333 205.404V204.676C298.333 204.549 298.229 204.445 298.101 204.445H296.574C296.446 204.445 296.342 204.549 296.342 204.676V205.404C296.342 205.532 296.446 205.635 296.574 205.635Z" fill="#3F3D56"/>
<path d="M292.592 205.635H294.119C294.247 205.635 294.351 205.532 294.351 205.404V204.676C294.351 204.549 294.247 204.445 294.119 204.445H292.592C292.464 204.445 292.36 204.549 292.36 204.676V205.404C292.36 205.532 292.464 205.635 292.592 205.635Z" fill="#3F3D56"/>
<path d="M288.611 205.635H290.137C290.266 205.635 290.369 205.532 290.369 205.404V204.676C290.369 204.549 290.266 204.445 290.137 204.445H288.611C288.482 204.445 288.379 204.549 288.379 204.676V205.404C288.379 205.532 288.482 205.635 288.611 205.635Z" fill="#3F3D56"/>
<path d="M284.629 205.635H286.156C286.284 205.635 286.388 205.532 286.388 205.404V204.676C286.388 204.549 286.284 204.445 286.156 204.445H284.629C284.501 204.445 284.397 204.549 284.397 204.676V205.404C284.397 205.532 284.501 205.635 284.629 205.635Z" fill="#3F3D56"/>
<path d="M280.647 205.635H282.174C282.302 205.635 282.406 205.532 282.406 205.404V204.676C282.406 204.549 282.302 204.445 282.174 204.445H280.647C280.519 204.445 280.415 204.549 280.415 204.676V205.404C280.415 205.532 280.519 205.635 280.647 205.635Z" fill="#3F3D56"/>
<path d="M276.665 205.635H278.192C278.32 205.635 278.424 205.532 278.424 205.404V204.676C278.424 204.549 278.32 204.445 278.192 204.445H276.665C276.537 204.445 276.433 204.549 276.433 204.676V205.404C276.433 205.532 276.537 205.635 276.665 205.635Z" fill="#3F3D56"/>
<path d="M272.683 205.635H274.21C274.338 205.635 274.442 205.532 274.442 205.404V204.676C274.442 204.549 274.338 204.445 274.21 204.445H272.683C272.555 204.445 272.451 204.549 272.451 204.676V205.404C272.451 205.532 272.555 205.635 272.683 205.635Z" fill="#3F3D56"/>
<path d="M268.701 205.635H270.228C270.356 205.635 270.46 205.532 270.46 205.404V204.676C270.46 204.549 270.356 204.445 270.228 204.445H268.701C268.573 204.445 268.469 204.549 268.469 204.676V205.404C268.469 205.532 268.573 205.635 268.701 205.635Z" fill="#3F3D56"/>
<path d="M264.72 205.635H266.246C266.375 205.635 266.478 205.532 266.478 205.404V204.676C266.478 204.549 266.375 204.445 266.246 204.445H264.72C264.591 204.445 264.487 204.549 264.487 204.676V205.404C264.487 205.532 264.591 205.635 264.72 205.635Z" fill="#3F3D56"/>
<path d="M260.738 205.635H262.265C262.393 205.635 262.497 205.532 262.497 205.404V204.676C262.497 204.549 262.393 204.445 262.265 204.445H260.738C260.61 204.445 260.506 204.549 260.506 204.676V205.404C260.506 205.532 260.61 205.635 260.738 205.635Z" fill="#3F3D56"/>
<path d="M256.756 205.635H258.283C258.411 205.635 258.515 205.532 258.515 205.404V204.676C258.515 204.549 258.411 204.445 258.283 204.445H256.756C256.628 204.445 256.524 204.549 256.524 204.676V205.404C256.524 205.532 256.628 205.635 256.756 205.635Z" fill="#3F3D56"/>
<path d="M252.774 205.635H254.301C254.429 205.635 254.533 205.532 254.533 205.404V204.676C254.533 204.549 254.429 204.445 254.301 204.445H252.774C252.646 204.445 252.542 204.549 252.542 204.676V205.404C252.542 205.532 252.646 205.635 252.774 205.635Z" fill="#3F3D56"/>
<path d="M248.792 205.635H250.319C250.447 205.635 250.551 205.532 250.551 205.404V204.676C250.551 204.549 250.447 204.445 250.319 204.445H248.792C248.664 204.445 248.56 204.549 248.56 204.676V205.404C248.56 205.532 248.664 205.635 248.792 205.635Z" fill="#3F3D56"/>
<path d="M244.81 205.635H246.337C246.465 205.635 246.569 205.532 246.569 205.404V204.676C246.569 204.549 246.465 204.445 246.337 204.445H244.81C244.682 204.445 244.578 204.549 244.578 204.676V205.404C244.578 205.532 244.682 205.635 244.81 205.635Z" fill="#3F3D56"/>
<path d="M240.829 205.635H242.355C242.484 205.635 242.587 205.532 242.587 205.404V204.676C242.587 204.549 242.484 204.445 242.355 204.445H240.829C240.7 204.445 240.596 204.549 240.596 204.676V205.404C240.596 205.532 240.7 205.635 240.829 205.635Z" fill="#3F3D56"/>
<path d="M236.847 205.635H238.373C238.502 205.635 238.606 205.532 238.606 205.404V204.676C238.606 204.549 238.502 204.445 238.373 204.445H236.847C236.719 204.445 236.615 204.549 236.615 204.676V205.404C236.615 205.532 236.719 205.635 236.847 205.635Z" fill="#3F3D56"/>
<path d="M296.621 207.619H298.148C298.276 207.619 298.38 207.515 298.38 207.388V206.66C298.38 206.532 298.276 206.429 298.148 206.429H296.621C296.493 206.429 296.389 206.532 296.389 206.66V207.388C296.389 207.515 296.493 207.619 296.621 207.619Z" fill="#3F3D56"/>
<path d="M292.639 207.619H294.166C294.294 207.619 294.398 207.515 294.398 207.388V206.66C294.398 206.532 294.294 206.429 294.166 206.429H292.639C292.511 206.429 292.407 206.532 292.407 206.66V207.388C292.407 207.515 292.511 207.619 292.639 207.619Z" fill="#3F3D56"/>
<path d="M288.658 207.619H290.184C290.313 207.619 290.417 207.515 290.417 207.388V206.66C290.417 206.532 290.313 206.429 290.184 206.429H288.658C288.529 206.429 288.426 206.532 288.426 206.66V207.388C288.426 207.515 288.529 207.619 288.658 207.619Z" fill="#3F3D56"/>
<path d="M284.676 207.619H286.203C286.331 207.619 286.435 207.515 286.435 207.388V206.66C286.435 206.532 286.331 206.429 286.203 206.429H284.676C284.548 206.429 284.444 206.532 284.444 206.66V207.388C284.444 207.515 284.548 207.619 284.676 207.619Z" fill="#3F3D56"/>
<path d="M280.694 207.619H282.221C282.349 207.619 282.453 207.515 282.453 207.388V206.66C282.453 206.532 282.349 206.429 282.221 206.429H280.694C280.566 206.429 280.462 206.532 280.462 206.66V207.388C280.462 207.515 280.566 207.619 280.694 207.619Z" fill="#3F3D56"/>
<path d="M276.712 207.619H278.239C278.367 207.619 278.471 207.515 278.471 207.388V206.66C278.471 206.532 278.367 206.429 278.239 206.429H276.712C276.584 206.429 276.48 206.532 276.48 206.66V207.388C276.48 207.515 276.584 207.619 276.712 207.619Z" fill="#3F3D56"/>
<path d="M272.73 207.619H274.257C274.385 207.619 274.489 207.515 274.489 207.388V206.66C274.489 206.532 274.385 206.429 274.257 206.429H272.73C272.602 206.429 272.498 206.532 272.498 206.66V207.388C272.498 207.515 272.602 207.619 272.73 207.619Z" fill="#3F3D56"/>
<path d="M268.748 207.619H270.275C270.403 207.619 270.507 207.515 270.507 207.388V206.66C270.507 206.532 270.403 206.429 270.275 206.429H268.748C268.62 206.429 268.516 206.532 268.516 206.66V207.388C268.516 207.515 268.62 207.619 268.748 207.619Z" fill="#3F3D56"/>
<path d="M264.767 207.619H266.293C266.422 207.619 266.525 207.515 266.525 207.388V206.66C266.525 206.532 266.422 206.429 266.293 206.429H264.767C264.638 206.429 264.535 206.532 264.535 206.66V207.388C264.535 207.515 264.638 207.619 264.767 207.619Z" fill="#3F3D56"/>
<path d="M260.785 207.619H262.312C262.44 207.619 262.544 207.515 262.544 207.388V206.66C262.544 206.532 262.44 206.429 262.312 206.429H260.785C260.657 206.429 260.553 206.532 260.553 206.66V207.388C260.553 207.515 260.657 207.619 260.785 207.619Z" fill="#3F3D56"/>
<path d="M256.803 207.619H258.33C258.458 207.619 258.562 207.515 258.562 207.388V206.66C258.562 206.532 258.458 206.429 258.33 206.429H256.803C256.675 206.429 256.571 206.532 256.571 206.66V207.388C256.571 207.515 256.675 207.619 256.803 207.619Z" fill="#3F3D56"/>
<path d="M252.821 207.619H254.348C254.476 207.619 254.58 207.515 254.58 207.388V206.66C254.58 206.532 254.476 206.429 254.348 206.429H252.821C252.693 206.429 252.589 206.532 252.589 206.66V207.388C252.589 207.515 252.693 207.619 252.821 207.619Z" fill="#3F3D56"/>
<path d="M248.839 207.619H250.366C250.494 207.619 250.598 207.515 250.598 207.388V206.66C250.598 206.532 250.494 206.429 250.366 206.429H248.839C248.711 206.429 248.607 206.532 248.607 206.66V207.388C248.607 207.515 248.711 207.619 248.839 207.619Z" fill="#3F3D56"/>
<path d="M244.857 207.619H246.384C246.512 207.619 246.616 207.515 246.616 207.388V206.66C246.616 206.532 246.512 206.429 246.384 206.429H244.857C244.729 206.429 244.625 206.532 244.625 206.66V207.388C244.625 207.515 244.729 207.619 244.857 207.619Z" fill="#3F3D56"/>
<path d="M240.876 207.619H242.402C242.531 207.619 242.634 207.515 242.634 207.388V206.66C242.634 206.532 242.531 206.429 242.402 206.429H240.876C240.747 206.429 240.644 206.532 240.644 206.66V207.388C240.644 207.515 240.747 207.619 240.876 207.619Z" fill="#3F3D56"/>
<path d="M236.894 207.619H238.421C238.549 207.619 238.653 207.515 238.653 207.388V206.66C238.653 206.532 238.549 206.429 238.421 206.429H236.894C236.766 206.429 236.662 206.532 236.662 206.66V207.388C236.662 207.515 236.766 207.619 236.894 207.619Z" fill="#3F3D56"/>
<path d="M263.572 209.999H279.035C279.163 209.999 279.267 209.896 279.267 209.768V209.04C279.267 208.912 279.163 208.809 279.035 208.809H263.572C263.444 208.809 263.34 208.912 263.34 209.04V209.768C263.34 209.896 263.444 209.999 263.572 209.999Z" fill="#3F3D56"/>
<path d="M247.189 169.885H245.838C245.428 169.885 245.095 170.216 245.095 170.624C245.095 171.032 245.428 171.363 245.838 171.363H247.189C247.599 171.363 247.931 171.032 247.931 170.624C247.931 170.216 247.599 169.885 247.189 169.885Z" fill="white"/>
<path d="M262.648 169.885H261.297C260.887 169.885 260.555 170.216 260.555 170.624C260.555 171.032 260.887 171.363 261.297 171.363H262.648C263.058 171.363 263.39 171.032 263.39 170.624C263.39 170.216 263.058 169.885 262.648 169.885Z" fill="white"/>
<path d="M267.028 169.885H265.677C265.267 169.885 264.935 170.216 264.935 170.624C264.935 171.032 265.267 171.363 265.677 171.363H267.028C267.438 171.363 267.771 171.032 267.771 170.624C267.771 170.216 267.438 169.885 267.028 169.885Z" fill="white"/>
<path d="M258.443 169.761H250.042C249.633 169.761 249.3 170.092 249.3 170.501C249.3 170.909 249.633 171.24 250.042 171.24H258.443C258.853 171.24 259.185 170.909 259.185 170.501C259.185 170.092 258.853 169.761 258.443 169.761Z" fill="white"/>
<path d="M279.056 169.761H270.655C270.245 169.761 269.913 170.092 269.913 170.501C269.913 170.909 270.245 171.24 270.655 171.24H279.056C279.466 171.24 279.798 170.909 279.798 170.501C279.798 170.092 279.466 169.761 279.056 169.761Z" fill="white"/>
<path d="M251.312 173.222H249.96C249.55 173.222 249.218 173.553 249.218 173.961C249.218 174.369 249.55 174.7 249.96 174.7H251.312C251.721 174.7 252.054 174.369 252.054 173.961C252.054 173.553 251.721 173.222 251.312 173.222Z" fill="white"/>
<path d="M266.771 173.222H265.419C265.009 173.222 264.677 173.553 264.677 173.961C264.677 174.369 265.009 174.7 265.419 174.7H266.771C267.181 174.7 267.513 174.369 267.513 173.961C267.513 173.553 267.181 173.222 266.771 173.222Z" fill="white"/>
<path d="M271.151 173.222H269.799C269.389 173.222 269.057 173.553 269.057 173.961C269.057 174.369 269.389 174.7 269.799 174.7H271.151C271.561 174.7 271.893 174.369 271.893 173.961C271.893 173.553 271.561 173.222 271.151 173.222Z" fill="white"/>
<path d="M262.566 173.098H254.165C253.755 173.098 253.423 173.429 253.423 173.838C253.423 174.246 253.755 174.577 254.165 174.577H262.566C262.976 174.577 263.308 174.246 263.308 173.838C263.308 173.429 262.976 173.098 262.566 173.098Z" fill="white"/>
<path d="M283.178 173.098H274.777C274.367 173.098 274.035 173.429 274.035 173.838C274.035 174.246 274.367 174.577 274.777 174.577H283.178C283.588 174.577 283.92 174.246 283.92 173.838C283.92 173.429 283.588 173.098 283.178 173.098Z" fill="white"/>
<path d="M255.434 176.559H254.082C253.673 176.559 253.34 176.89 253.34 177.298C253.34 177.706 253.673 178.037 254.082 178.037H255.434C255.844 178.037 256.176 177.706 256.176 177.298C256.176 176.89 255.844 176.559 255.434 176.559Z" fill="white"/>
<path d="M270.893 176.559H269.542C269.132 176.559 268.8 176.89 268.8 177.298C268.8 177.706 269.132 178.037 269.542 178.037H270.893C271.303 178.037 271.635 177.706 271.635 177.298C271.635 176.89 271.303 176.559 270.893 176.559Z" fill="white"/>
<path d="M275.273 176.559H273.922C273.512 176.559 273.18 176.89 273.18 177.298C273.18 177.706 273.512 178.037 273.922 178.037H275.273C275.683 178.037 276.015 177.706 276.015 177.298C276.015 176.89 275.683 176.559 275.273 176.559Z" fill="white"/>
<path d="M266.688 176.435H258.287C257.878 176.435 257.545 176.766 257.545 177.175C257.545 177.583 257.878 177.914 258.287 177.914H266.688C267.098 177.914 267.43 177.583 267.43 177.175C267.43 176.766 267.098 176.435 266.688 176.435Z" fill="white"/>
<path d="M287.301 176.435H278.9C278.49 176.435 278.158 176.766 278.158 177.175C278.158 177.583 278.49 177.914 278.9 177.914H287.301C287.71 177.914 288.043 177.583 288.043 177.175C288.043 176.766 287.71 176.435 287.301 176.435Z" fill="white"/>
<path d="M259.557 179.896H258.205C257.795 179.896 257.463 180.227 257.463 180.635C257.463 181.043 257.795 181.374 258.205 181.374H259.557C259.966 181.374 260.299 181.043 260.299 180.635C260.299 180.227 259.966 179.896 259.557 179.896Z" fill="white"/>
<path d="M275.016 179.896H273.664C273.254 179.896 272.922 180.227 272.922 180.635C272.922 181.043 273.254 181.374 273.664 181.374H275.016C275.426 181.374 275.758 181.043 275.758 180.635C275.758 180.227 275.426 179.896 275.016 179.896Z" fill="white"/>
<path d="M279.396 179.896H278.044C277.634 179.896 277.302 180.227 277.302 180.635C277.302 181.043 277.634 181.374 278.044 181.374H279.396C279.806 181.374 280.138 181.043 280.138 180.635C280.138 180.227 279.806 179.896 279.396 179.896Z" fill="white"/>
<path d="M270.811 179.772H262.41C262 179.772 261.668 180.103 261.668 180.512C261.668 180.92 262 181.251 262.41 181.251H270.811C271.221 181.251 271.553 180.92 271.553 180.512C271.553 180.103 271.221 179.772 270.811 179.772Z" fill="white"/>
<path d="M262.648 193.165H261.297C260.887 193.165 260.555 193.496 260.555 193.904C260.555 194.313 260.887 194.644 261.297 194.644H262.648C263.058 194.644 263.39 194.313 263.39 193.904C263.39 193.496 263.058 193.165 262.648 193.165Z" fill="white"/>
<path d="M267.028 193.165H265.677C265.267 193.165 264.935 193.496 264.935 193.904C264.935 194.313 265.267 194.644 265.677 194.644H267.028C267.438 194.644 267.771 194.313 267.771 193.904C267.771 193.496 267.438 193.165 267.028 193.165Z" fill="white"/>
<path d="M279.056 193.288H270.655C270.245 193.288 269.913 193.619 269.913 194.028C269.913 194.436 270.245 194.767 270.655 194.767H279.056C279.466 194.767 279.798 194.436 279.798 194.028C279.798 193.619 279.466 193.288 279.056 193.288Z" fill="white"/>
<path d="M247.189 193.165H245.838C245.428 193.165 245.095 193.496 245.095 193.904C245.095 194.313 245.428 194.644 245.838 194.644H247.189C247.599 194.644 247.931 194.313 247.931 193.904C247.931 193.496 247.599 193.165 247.189 193.165Z" fill="white"/>
<path d="M258.443 193.288H250.042C249.633 193.288 249.3 193.619 249.3 194.028C249.3 194.436 249.633 194.767 250.042 194.767H258.443C258.853 194.767 259.185 194.436 259.185 194.028C259.185 193.619 258.853 193.288 258.443 193.288Z" fill="white"/>
<path d="M251.312 189.828H249.96C249.55 189.828 249.218 190.159 249.218 190.567C249.218 190.976 249.55 191.307 249.96 191.307H251.312C251.721 191.307 252.054 190.976 252.054 190.567C252.054 190.159 251.721 189.828 251.312 189.828Z" fill="white"/>
<path d="M266.771 189.828H265.419C265.009 189.828 264.677 190.159 264.677 190.567C264.677 190.976 265.009 191.307 265.419 191.307H266.771C267.181 191.307 267.513 190.976 267.513 190.567C267.513 190.159 267.181 189.828 266.771 189.828Z" fill="white"/>
<path d="M271.151 189.828H269.799C269.389 189.828 269.057 190.159 269.057 190.567C269.057 190.976 269.389 191.307 269.799 191.307H271.151C271.561 191.307 271.893 190.976 271.893 190.567C271.893 190.159 271.561 189.828 271.151 189.828Z" fill="white"/>
<path d="M262.566 189.951H254.165C253.755 189.951 253.423 190.282 253.423 190.691C253.423 191.099 253.755 191.43 254.165 191.43H262.566C262.976 191.43 263.308 191.099 263.308 190.691C263.308 190.282 262.976 189.951 262.566 189.951Z" fill="white"/>
<path d="M255.434 186.491H254.082C253.673 186.491 253.34 186.822 253.34 187.23C253.34 187.639 253.673 187.97 254.082 187.97H255.434C255.844 187.97 256.176 187.639 256.176 187.23C256.176 186.822 255.844 186.491 255.434 186.491Z" fill="white"/>
<path d="M270.893 186.491H269.542C269.132 186.491 268.8 186.822 268.8 187.23C268.8 187.639 269.132 187.97 269.542 187.97H270.893C271.303 187.97 271.635 187.639 271.635 187.23C271.635 186.822 271.303 186.491 270.893 186.491Z" fill="white"/>
<path d="M275.273 186.491H273.922C273.512 186.491 273.18 186.822 273.18 187.23C273.18 187.639 273.512 187.97 273.922 187.97H275.273C275.683 187.97 276.015 187.639 276.015 187.23C276.015 186.822 275.683 186.491 275.273 186.491Z" fill="white"/>
<path d="M266.688 186.614H258.287C257.878 186.614 257.545 186.945 257.545 187.354C257.545 187.762 257.878 188.093 258.287 188.093H266.688C267.098 188.093 267.43 187.762 267.43 187.354C267.43 186.945 267.098 186.614 266.688 186.614Z" fill="white"/>
<path d="M259.557 183.154H258.205C257.795 183.154 257.463 183.485 257.463 183.893C257.463 184.302 257.795 184.633 258.205 184.633H259.557C259.966 184.633 260.299 184.302 260.299 183.893C260.299 183.485 259.966 183.154 259.557 183.154Z" fill="white"/>
<path d="M275.016 183.154H273.664C273.254 183.154 272.922 183.485 272.922 183.893C272.922 184.302 273.254 184.633 273.664 184.633H275.016C275.426 184.633 275.758 184.302 275.758 183.893C275.758 183.485 275.426 183.154 275.016 183.154Z" fill="white"/>
<path d="M279.396 183.154H278.044C277.634 183.154 277.302 183.485 277.302 183.893C277.302 184.302 277.634 184.633 278.044 184.633H279.396C279.806 184.633 280.138 184.302 280.138 183.893C280.138 183.485 279.806 183.154 279.396 183.154Z" fill="white"/>
<path d="M270.811 183.277H262.41C262 183.277 261.668 183.608 261.668 184.017C261.668 184.425 262 184.756 262.41 184.756H270.811C271.221 184.756 271.553 184.425 271.553 184.017C271.553 183.608 271.221 183.277 270.811 183.277Z" fill="white"/>
<path d="M240.003 232.274L233.657 222.281L253.575 206.463L261.796 197.389C262.864 196.21 264.224 195.331 265.74 194.84C267.255 194.348 268.874 194.262 270.434 194.589C271.994 194.917 273.44 195.646 274.628 196.705C275.816 197.763 276.705 199.114 277.205 200.622C277.946 202.857 277.787 205.291 276.761 207.41C275.735 209.53 273.922 211.17 271.705 211.983L258.706 216.755L240.003 232.274Z" fill="#FFB6B6"/>
<path d="M91.1162 159.818V208.387H125.269V159.818C125.269 159.469 125.157 159.129 124.95 158.847C124.742 158.566 124.449 158.359 124.114 158.256C123.956 158.204 123.79 158.178 123.624 158.18H92.7656C92.5493 158.179 92.335 158.221 92.135 158.304C91.935 158.386 91.7532 158.506 91.6 158.659C91.4469 158.811 91.3253 158.991 91.2423 159.19C91.1592 159.389 91.1164 159.603 91.1162 159.818ZM104.444 176.507C104.453 175.549 104.841 174.634 105.524 173.96C106.207 173.286 107.129 172.908 108.09 172.908C109.051 172.908 109.974 173.286 110.656 173.96C111.339 174.634 111.727 175.549 111.736 176.507V182.142C111.731 183.102 111.345 184.021 110.662 184.699C109.979 185.376 109.054 185.756 108.09 185.756C107.127 185.756 106.202 185.376 105.519 184.699C104.836 184.021 104.449 183.102 104.444 182.142V176.507Z" fill="#2F2E41"/>
<path d="M91.0117 206.834V211.517C91.0124 211.76 91.1092 211.992 91.2809 212.164C91.4527 212.336 91.6855 212.434 91.929 212.436H124.456C124.7 212.435 124.933 212.337 125.105 212.165C125.277 211.993 125.373 211.76 125.373 211.517V206.834H91.0117Z" fill="#3F3D56"/>
<path d="M37.3895 86.6435V175.323C37.3904 176.453 37.8414 177.536 38.6435 178.336C39.4456 179.135 40.5332 179.584 41.6675 179.585H173.572C174.706 179.584 175.794 179.135 176.596 178.336C177.398 177.536 177.849 176.453 177.85 175.323V86.6435C177.847 85.5144 177.395 84.4323 176.594 83.6344C175.792 82.8364 174.705 82.3876 173.572 82.3861H41.6675C40.5342 82.3876 39.4476 82.8364 38.6458 83.6344C37.844 84.4323 37.3922 85.5144 37.3895 86.6435Z" fill="#3F3D56"/>
<path d="M40.4839 87.7468V174.229C40.485 174.833 40.7262 175.411 41.1547 175.838C41.5833 176.265 42.1642 176.506 42.7703 176.507H172.474C173.08 176.506 173.661 176.265 174.089 175.838C174.518 175.411 174.759 174.833 174.76 174.229V87.7468C174.76 87.1423 174.519 86.5625 174.091 86.1346C173.662 85.7066 173.081 85.4656 172.474 85.4643H42.7703C42.1635 85.4656 41.582 85.7066 41.1534 86.1346C40.7248 86.5625 40.484 87.1423 40.4839 87.7468Z" fill="white"/>
<path d="M64.5547 212.119C64.6867 212.284 64.8545 212.417 65.0455 212.508C65.2365 212.599 65.4457 212.645 65.6575 212.644H142.823C143.034 212.644 143.242 212.597 143.433 212.506C143.623 212.416 143.791 212.284 143.924 212.121C144.057 211.958 144.151 211.767 144.201 211.562C144.251 211.358 144.254 211.145 144.211 210.939L143.013 205.271C142.963 205.04 142.856 204.825 142.702 204.645C142.547 204.466 142.35 204.328 142.129 204.243C141.968 204.181 141.797 204.148 141.625 204.149H66.8506C66.6781 204.148 66.5072 204.181 66.3467 204.243C66.125 204.328 65.928 204.466 65.7735 204.645C65.6191 204.825 65.5122 205.04 65.4626 205.271L64.2648 210.939C64.2221 211.145 64.226 211.358 64.2762 211.562C64.3264 211.766 64.4215 211.956 64.5547 212.119Z" fill="#2F2E41"/>
<path d="M168.265 97.3776H46.9014C46.7753 97.3748 46.6553 97.3229 46.567 97.233C46.4788 97.1431 46.4294 97.0224 46.4294 96.8967C46.4294 96.771 46.4788 96.6503 46.567 96.5604C46.6553 96.4706 46.7753 96.4187 46.9014 96.4159H168.265C168.391 96.4187 168.511 96.4706 168.599 96.5604C168.687 96.6503 168.737 96.771 168.737 96.8967C168.737 97.0224 168.687 97.1431 168.599 97.233C168.511 97.3229 168.391 97.3748 168.265 97.3776Z" fill="#3F3D56"/>
<path d="M55.1628 93.9609C56.7249 93.9609 57.9912 92.6711 57.9912 91.0802C57.9912 89.4892 56.7249 88.1995 55.1628 88.1995C53.6007 88.1995 52.3344 89.4892 52.3344 91.0802C52.3344 92.6711 53.6007 93.9609 55.1628 93.9609Z" fill="#3F3D56"/>
<path d="M64.9337 93.9609C66.4958 93.9609 67.7621 92.6711 67.7621 91.0802C67.7621 89.4892 66.4958 88.1995 64.9337 88.1995C63.3716 88.1995 62.1053 89.4892 62.1053 91.0802C62.1053 92.6711 63.3716 93.9609 64.9337 93.9609Z" fill="#3F3D56"/>
<path d="M74.7046 93.9609C76.2667 93.9609 77.5331 92.6711 77.5331 91.0802C77.5331 89.4892 76.2667 88.1995 74.7046 88.1995C73.1425 88.1995 71.8762 89.4892 71.8762 91.0802C71.8762 92.6711 73.1425 93.9609 74.7046 93.9609Z" fill="#3F3D56"/>
<path d="M162.381 88.9118H155.441C155.304 88.915 155.173 88.9715 155.077 89.0693C154.982 89.1671 154.928 89.2984 154.928 89.4351C154.928 89.5718 154.982 89.7031 155.077 89.8009C155.173 89.8987 155.304 89.9552 155.441 89.9584H162.381C162.519 89.9565 162.651 89.9005 162.748 89.8026C162.844 89.7046 162.899 89.5726 162.899 89.4351C162.899 89.2976 162.844 89.1656 162.748 89.0677C162.651 88.9698 162.519 88.9138 162.381 88.9118Z" fill="#3F3D56"/>
<path d="M162.381 90.8771H155.441C155.304 90.8801 155.173 90.9366 155.077 91.0344C154.981 91.1322 154.927 91.2636 154.927 91.4004C154.927 91.5372 154.981 91.6686 155.077 91.7664C155.173 91.8642 155.304 91.9207 155.441 91.9237H162.381C162.519 91.922 162.651 91.8662 162.748 91.7682C162.845 91.6703 162.9 91.5381 162.9 91.4004C162.9 91.2627 162.845 91.1306 162.748 91.0326C162.651 90.9346 162.519 90.8788 162.381 90.8771Z" fill="#3F3D56"/>
<path d="M162.381 92.8424H155.441C155.304 92.8456 155.173 92.9021 155.077 92.9999C154.982 93.0977 154.928 93.229 154.928 93.3657C154.928 93.5024 154.982 93.6337 155.077 93.7314C155.173 93.8292 155.304 93.8858 155.441 93.8889H162.381C162.519 93.887 162.651 93.831 162.748 93.7331C162.844 93.6352 162.899 93.5032 162.899 93.3657C162.899 93.2281 162.844 93.0962 162.748 92.9982C162.651 92.9003 162.519 92.8443 162.381 92.8424Z" fill="#3F3D56"/>
<path d="M329.688 208.889C329.897 209.497 330.294 210.022 330.822 210.391C331.35 210.759 331.982 210.952 332.627 210.94L345.219 210.617C345.868 210.605 346.496 210.383 347.009 209.986C347.521 209.588 347.891 209.036 348.062 208.412L349.844 189.428C350.476 189.713 351.164 189.854 351.858 189.84C352.461 189.825 353.055 189.692 353.606 189.448C354.158 189.205 354.655 188.855 355.071 188.42C355.486 187.984 355.812 187.472 356.029 186.911C356.245 186.35 356.349 185.753 356.334 185.152C356.319 184.551 356.185 183.959 355.94 183.41C355.696 182.861 355.345 182.365 354.908 181.951C354.471 181.537 353.956 181.213 353.393 180.997C352.831 180.781 352.231 180.678 351.628 180.693C351.35 180.692 351.074 180.721 350.803 180.778C350.508 180.46 350.149 180.208 349.75 180.036C349.351 179.865 348.92 179.778 348.486 179.782L329.116 180.281C328.955 180.287 328.795 180.307 328.638 180.34C328.213 180.419 327.81 180.587 327.456 180.834C327.103 181.082 326.806 181.401 326.586 181.772C326.367 182.143 326.23 182.556 326.184 182.984C326.138 183.412 326.185 183.845 326.322 184.254L329.688 208.889ZM350.209 188.139L351.477 183.615C351.622 183.093 351.625 182.542 351.487 182.017C351.549 182.017 351.603 181.988 351.664 181.988C352.534 181.97 353.375 182.296 354.003 182.895C354.631 183.494 354.996 184.317 355.016 185.183C355.036 186.049 354.711 186.888 354.112 187.516C353.512 188.143 352.687 188.509 351.818 188.531C351.256 188.549 350.7 188.413 350.209 188.139Z" fill="#2F2E41"/>
<path d="M328.638 180.34C329.051 182.691 333.69 184.343 339.269 184.056C344.399 183.821 348.594 182.026 349.362 179.899C349.078 179.815 348.782 179.776 348.486 179.782L329.116 180.281C328.955 180.287 328.795 180.306 328.638 180.34Z" fill="#3F3D56"/>
<path d="M340.292 198.457C340.317 198.451 340.341 198.44 340.363 198.426L343.098 196.643C343.131 196.621 343.158 196.592 343.177 196.557C343.196 196.523 343.206 196.484 343.206 196.445C343.206 196.405 343.196 196.367 343.177 196.332C343.158 196.298 343.131 196.268 343.098 196.247L340.256 194.392C340.23 194.375 340.2 194.363 340.17 194.357C340.139 194.351 340.107 194.351 340.077 194.357C340.046 194.364 340.017 194.376 339.991 194.393C339.965 194.411 339.943 194.433 339.926 194.459C339.909 194.486 339.897 194.515 339.891 194.545C339.885 194.576 339.886 194.607 339.892 194.638C339.899 194.668 339.911 194.697 339.929 194.723C339.946 194.749 339.969 194.771 339.995 194.788L342.534 196.444L340.103 198.03C340.056 198.06 340.021 198.107 340.005 198.16C339.989 198.214 339.993 198.272 340.016 198.323C340.038 198.374 340.078 198.416 340.129 198.441C340.179 198.465 340.237 198.471 340.292 198.457Z" fill="#E59500"/>
<path d="M335.972 198.656C336.018 198.644 336.06 198.619 336.091 198.584C336.123 198.549 336.143 198.505 336.15 198.459C336.156 198.412 336.148 198.364 336.127 198.322C336.106 198.28 336.073 198.244 336.032 198.221L333.512 196.781L335.948 194.978C335.973 194.96 335.994 194.936 336.01 194.91C336.026 194.883 336.037 194.854 336.041 194.823C336.046 194.792 336.044 194.761 336.037 194.731C336.029 194.7 336.016 194.672 335.997 194.647C335.978 194.622 335.955 194.601 335.928 194.585C335.901 194.569 335.872 194.559 335.841 194.554C335.81 194.55 335.779 194.551 335.748 194.559C335.718 194.566 335.69 194.58 335.665 194.598L332.937 196.617C332.905 196.64 332.88 196.671 332.863 196.707C332.846 196.742 332.839 196.782 332.841 196.821C332.844 196.86 332.856 196.898 332.876 196.932C332.897 196.965 332.926 196.993 332.96 197.012L335.796 198.632C335.849 198.662 335.913 198.671 335.972 198.656Z" fill="#E59500"/>
<path d="M340.02 200.02C340.043 200.014 340.065 200.005 340.085 199.993C340.111 199.977 340.135 199.955 340.153 199.93C340.172 199.905 340.185 199.877 340.192 199.846C340.2 199.816 340.201 199.785 340.196 199.754C340.191 199.723 340.181 199.694 340.164 199.667L336.288 193.318C336.255 193.264 336.202 193.226 336.141 193.211C336.08 193.196 336.015 193.206 335.961 193.239C335.907 193.272 335.869 193.324 335.854 193.385C335.839 193.446 335.849 193.511 335.882 193.564L339.758 199.914C339.785 199.957 339.824 199.991 339.871 200.01C339.918 200.029 339.97 200.033 340.02 200.02Z" fill="#E59500"/>
<path d="M122.084 123.518H101.079C100.222 123.518 99.527 124.21 99.527 125.064V127.108C99.527 127.962 100.222 128.654 101.079 128.654H122.084C122.941 128.654 123.635 127.962 123.635 127.108V125.064C123.635 124.21 122.941 123.518 122.084 123.518Z" fill="#E59500"/>
<path d="M134.328 133.79H88.8347C87.9778 133.79 87.2832 134.482 87.2832 135.336V137.381C87.2832 138.234 87.9778 138.926 88.8347 138.926H134.328C135.185 138.926 135.879 138.234 135.879 137.381V135.336C135.879 134.482 135.185 133.79 134.328 133.79Z" fill="#E6E6E6"/>
<path d="M134.328 144.062H88.8347C87.9778 144.062 87.2832 144.755 87.2832 145.608V147.653C87.2832 148.507 87.9778 149.199 88.8347 149.199H134.328C135.185 149.199 135.879 148.507 135.879 147.653V145.608C135.879 144.755 135.185 144.062 134.328 144.062Z" fill="#E6E6E6"/>
<path d="M138.184 178.46L138.287 178.784L138.293 178.795L141.394 188.19L144.962 199.016L151.675 219.361L151.74 222.521V222.532L152.239 247.955L150.856 251.401L152.412 257.052C152.412 257.052 151.697 248.51 147.858 253.416C145.683 256.203 143.14 259.056 141.053 261.73C144.095 262.956 147.185 264.065 150.325 265.058C151.003 265.274 151.686 265.479 152.369 265.684C152.516 265.727 152.662 265.771 152.808 265.814C163.216 268.88 173.975 270.603 184.822 270.941C185.386 270.957 185.939 270.968 186.476 270.978C186.666 270.984 186.85 270.989 187.035 270.989C187.642 270.995 188.244 271 188.851 271C190.077 271 191.297 270.982 192.511 270.946C201.501 270.694 210.439 269.489 219.173 267.353C219.114 263.761 218.951 259.563 218.718 255.08C218.609 252.881 216.175 250.499 216.028 248.197C215.925 246.468 218.111 244.842 217.997 243.087C217.259 232.277 216.337 236.426 215.654 228.771C215.584 228.02 215.519 227.302 215.459 226.616C215.02 221.7 214.716 218.626 214.716 218.626L217.633 200.307L222.215 171.545L221.863 170.967L221.467 170.773L197.299 158.855L195.987 155.506C195.605 154.541 194.941 153.712 194.082 153.126C193.223 152.54 192.208 152.223 191.167 152.216L175.246 152.151C174.42 152.148 173.605 152.34 172.868 152.713C172.132 153.086 171.495 153.629 171.011 154.296L166.701 160.244L138.184 178.46Z" fill="#3F3D56"/>
<path d="M155.346 214.834L151.74 222.521L149.278 227.772L145.043 249.862L142.923 252.104L141.107 244.167L122.095 248.373C121.471 244.921 121.928 248.49 121.543 244.703C121.651 244.595 121.765 244.486 121.879 244.378C122.183 244.097 122.437 243.833 122.432 243.579C122.215 230.516 122.866 208.286 128.299 194.818C129.15 192.619 130.272 190.534 131.639 188.611C131.748 188.465 131.851 188.319 131.954 188.173C134.459 184.678 136.042 181.237 138.287 178.79V178.784C138.301 178.773 138.314 178.76 138.325 178.747C138.333 178.742 138.341 178.737 138.347 178.73L153.768 170.584L154.43 189.103L154.901 202.414L155.346 214.834Z" fill="#3F3D56"/>
<path d="M210.953 217.017L215.457 226.618L217.029 229.962L221.263 252.05L223.376 254.286L225.197 246.352L226.052 246.177L241.481 242.993L245.977 257.222C246.991 255.54 247.39 253.56 247.108 251.618C246.825 249.676 245.879 247.891 244.427 246.564C244.12 246.288 243.864 246.018 243.872 245.763C244.128 230.399 243.184 202.345 234.666 190.799C231.96 187.134 230.337 183.485 227.975 180.935C227.968 180.928 227.968 180.92 227.961 180.92L222.213 171.545L221.862 170.969L221.467 170.773L210.953 217.017Z" fill="#3F3D56"/>
<path d="M183.666 147.637C195.364 147.637 204.846 138.19 204.846 126.536C204.846 114.882 195.364 105.435 183.666 105.435C171.969 105.435 162.486 114.882 162.486 126.536C162.486 138.19 171.969 147.637 183.666 147.637Z" fill="#FFB6B6"/>
<path d="M212.293 111.797C212.129 111.622 211.931 111.482 211.712 111.386C211.492 111.289 211.255 111.237 211.015 111.234L211.333 110.353C211.437 110.075 211.465 109.775 211.415 109.484C211.364 109.192 211.236 108.919 211.045 108.692C210.853 108.466 210.605 108.294 210.325 108.195C210.045 108.095 209.743 108.072 209.451 108.127L208.291 108.35L208.4 107.578C208.442 107.29 208.408 106.997 208.302 106.726C208.196 106.456 208.02 106.218 207.794 106.035C207.567 105.853 207.296 105.732 207.008 105.685C206.72 105.639 206.425 105.667 206.152 105.769C205.904 105.866 205.636 105.907 205.37 105.888C205.103 105.869 204.844 105.791 204.612 105.66C204.379 105.532 204.176 105.356 204.019 105.142C203.861 104.929 203.752 104.684 203.699 104.424L203.295 102.482L203.253 102.378C201.285 99.1104 197.501 96.7331 192.871 95.8618C188.75 95.0804 184.525 95.4782 180.451 95.8523C178.835 96.0039 177.01 96.1743 175.489 97.1025C174.196 97.8981 173.102 99.4893 173.326 101.095C169.309 99.8681 165.003 102.316 162.869 105.404C160.34 109.079 159.926 113.682 159.86 117.281C159.679 125.796 161.443 132.762 165.088 137.99C165.355 138.369 165.421 139.16 165.949 139.425L165.839 139.25C166.429 139.543 167.028 140.017 166.804 140.523C166.163 141.982 170.426 145.207 173.43 146.273C178.911 148.219 186.198 148.053 191.322 147.352L191.502 146.145C193.352 145.894 194.654 145.415 195.02 144.667C195.666 144.118 196.218 143.625 196.698 143.171L196.703 143.166C196.712 143.157 196.731 143.142 196.741 143.133C199.055 140.921 199.593 139.662 199.835 137.744C200.068 135.864 199.654 133.955 199.231 132.236C208.139 133.609 195.723 122.784 204.023 120.691C204.118 120.661 204.215 120.638 204.313 120.62C204.555 120.563 204.797 120.506 205.03 120.44C206.153 120.136 207.228 119.679 208.225 119.081C210.544 117.674 211.31 115.808 212.507 113.706C212.68 113.406 212.753 113.06 212.714 112.717C212.676 112.373 212.528 112.051 212.293 111.797Z" fill="#2F2E41"/>
<path d="M258.576 218.519C258.572 219.348 258.562 220.508 258.524 221.943C258.519 222.142 258.515 222.346 258.51 222.554C258.448 225.192 258.386 227.403 258.286 229.861C258.282 230.032 258.277 230.197 258.267 230.368C258.134 233.796 257.925 237.789 257.564 244.111C256.894 255.789 255.724 245.716 254.55 249.812C254.493 250.016 254.432 250.257 254.374 250.542C254.197 251.573 253.897 252.579 253.481 253.539C252.858 253.909 252.216 254.264 251.584 254.619C249.783 255.618 247.953 256.58 246.109 257.494C245.072 258.005 244.031 258.507 242.986 258.99C242.819 259.066 242.658 259.142 242.496 259.213C237.141 261.68 231.622 263.778 225.978 265.492C224.875 265.824 223.777 266.146 222.665 266.444C221.505 266.766 220.346 267.069 219.172 267.353C210.437 269.489 201.5 270.694 192.51 270.947C191.298 270.985 190.076 271 188.85 271C188.242 271 187.643 270.995 187.034 270.99C186.849 270.99 186.664 270.985 186.478 270.981C185.941 270.966 185.385 270.957 184.824 270.943C173.977 270.606 163.217 268.882 152.811 265.814L152.368 265.686C151.684 265.478 151.004 265.274 150.325 265.056C147.187 264.067 144.096 262.958 141.051 261.732C138.726 260.799 136.429 259.798 134.159 258.73C134.138 258.724 134.118 258.714 134.101 258.701C133.626 258.483 133.146 258.256 132.671 258.024C132.609 257.991 132.542 257.958 132.476 257.924C130.703 257.063 128.949 256.16 127.214 255.216C125.755 251.877 123.701 251.238 122.427 248.302C122.057 247.429 121.789 246.517 121.629 245.583C121.629 245.574 121.624 245.564 121.624 245.55C121.757 247.312 121.058 242.425 121.619 245.531C121.615 245.474 121.61 245.413 121.605 245.342C121.591 245.171 121.572 244.963 121.543 244.703C119.913 228.843 120.017 210.706 119.309 195.76C119.262 194.794 119.213 193.869 119.162 192.985C119.148 192.691 119.129 192.402 119.11 192.118C119.143 192.033 119.181 191.943 119.224 191.858C119.233 191.833 119.244 191.809 119.257 191.787C119.271 191.757 119.287 191.729 119.304 191.701C119.314 191.687 119.328 191.668 119.338 191.654C119.345 191.638 119.353 191.622 119.361 191.607C119.404 191.54 119.452 191.469 119.504 191.403C119.528 191.375 119.547 191.351 119.571 191.327C119.587 191.303 119.606 191.281 119.628 191.261C119.642 191.238 119.66 191.218 119.68 191.199C119.699 191.181 119.718 191.157 119.742 191.133C119.752 191.118 119.765 191.105 119.78 191.095C119.817 191.052 119.859 191.013 119.903 190.977C120.073 190.821 120.254 190.679 120.445 190.551C120.512 190.508 120.583 190.465 120.65 190.418C121.129 190.133 121.633 189.892 122.156 189.698C122.337 189.632 122.518 189.57 122.713 189.504C122.784 189.485 122.85 189.462 122.922 189.438C123.026 189.405 123.131 189.372 123.24 189.348C123.782 189.187 124.367 189.05 124.999 188.922C125.075 188.907 125.156 188.893 125.237 188.874C125.351 188.851 125.469 188.832 125.588 188.813C125.75 188.784 125.916 188.756 126.083 188.727C127.494 188.505 129.096 188.339 130.865 188.23C131.031 188.221 131.197 188.211 131.364 188.202C131.558 188.192 131.753 188.183 131.953 188.173C132.119 188.164 132.29 188.159 132.462 188.154C132.628 188.145 132.799 188.14 132.975 188.136C133.455 188.121 133.949 188.107 134.453 188.098C135.889 188.069 137.4 188.079 138.988 188.112C139.725 188.131 140.476 188.15 141.246 188.183C141.298 188.183 141.346 188.188 141.393 188.188C142.063 188.211 142.738 188.24 143.432 188.278C143.917 188.301 144.407 188.325 144.896 188.353C145.357 188.382 145.823 188.41 146.294 188.443C146.66 188.462 147.026 188.491 147.396 188.514C147.71 188.538 148.024 188.562 148.338 188.581L148.765 188.609C148.998 188.628 149.231 188.642 149.469 188.666C149.992 188.709 150.515 188.751 151.047 188.794C151.575 188.841 152.112 188.889 152.649 188.936C153.186 188.983 153.728 189.035 154.27 189.087C154.327 189.092 154.379 189.097 154.431 189.102C154.926 189.154 155.42 189.201 155.919 189.253C156.033 189.263 156.152 189.272 156.266 189.286C156.742 189.334 157.227 189.39 157.707 189.441C157.855 189.456 158.001 189.472 158.149 189.488C158.525 189.529 158.896 189.564 159.275 189.608C159.774 189.665 160.283 189.717 160.777 189.784C161.162 189.826 161.547 189.869 161.932 189.916C162.536 189.987 163.149 190.063 163.762 190.143C163.995 190.172 164.228 190.2 164.461 190.233C166.21 190.451 167.978 190.693 169.775 190.944C172.499 191.327 175.265 191.744 178.051 192.194C180.841 192.644 183.647 193.119 186.469 193.619C187.182 193.747 187.895 193.875 188.612 194.008C188.936 194.069 189.259 194.131 189.582 194.192C190.133 194.292 190.685 194.396 191.236 194.5C191.788 194.604 192.339 194.709 192.89 194.817C193.546 194.945 194.207 195.073 194.863 195.201C199.184 196.053 203.481 196.963 207.673 197.915C208.362 198.071 209.052 198.232 209.736 198.388C211.105 198.705 212.461 199.027 213.805 199.354C214.176 199.439 214.542 199.529 214.908 199.619C215.82 199.847 216.733 200.074 217.631 200.306L217.788 200.349C218.449 200.51 219.095 200.675 219.742 200.846C221.268 201.244 222.768 201.646 224.243 202.054C225.222 202.323 226.191 202.597 227.148 202.873C228.578 203.285 229.98 203.702 231.345 204.123C231.682 204.227 232.02 204.331 232.352 204.431C233.351 204.739 234.334 205.051 235.29 205.364C236.05 205.61 236.792 205.861 237.524 206.112C238.256 206.363 238.974 206.614 239.677 206.865C240.129 207.026 240.576 207.196 241.022 207.357C241.664 207.594 242.296 207.831 242.914 208.068C243.104 208.139 243.29 208.215 243.475 208.286C243.594 208.338 243.708 208.38 243.822 208.428C244.046 208.518 244.274 208.603 244.492 208.693C244.716 208.778 244.934 208.868 245.153 208.963C245.367 209.048 245.586 209.138 245.795 209.228C246.009 209.313 246.218 209.403 246.427 209.498C246.603 209.569 246.774 209.645 246.94 209.721C247.278 209.867 247.615 210.014 247.943 210.166C248.105 210.241 248.266 210.312 248.428 210.388L248.799 210.559C248.851 210.587 248.903 210.611 248.956 210.634C249.075 210.691 249.198 210.753 249.317 210.81C249.593 210.938 249.864 211.075 250.13 211.203C250.486 211.383 250.833 211.563 251.166 211.738C251.503 211.918 251.831 212.098 252.145 212.273C252.197 212.301 252.245 212.33 252.297 212.358C252.369 212.396 252.44 212.439 252.511 212.477C252.754 212.614 252.987 212.756 253.219 212.893C253.676 213.173 254.108 213.447 254.512 213.722C254.603 213.784 254.688 213.845 254.778 213.902C255.078 214.115 255.363 214.324 255.629 214.537C255.629 214.541 255.629 214.541 255.634 214.541C255.724 214.608 255.81 214.679 255.896 214.745C255.967 214.811 256.043 214.868 256.114 214.934C256.361 215.148 256.59 215.351 256.799 215.559C256.869 215.624 256.935 215.692 256.998 215.763C257.026 215.786 257.051 215.811 257.074 215.839C257.169 215.934 257.255 216.028 257.336 216.123C257.348 216.136 257.359 216.15 257.369 216.166C257.483 216.298 257.588 216.431 257.688 216.563C257.735 216.63 257.787 216.696 257.83 216.762C257.887 216.843 257.944 216.928 257.992 217.009C258.035 217.075 258.073 217.146 258.111 217.212C258.211 217.383 258.297 217.562 258.367 217.747C258.421 217.873 258.464 218.003 258.496 218.136C258.532 218.261 258.559 218.39 258.576 218.519Z" fill="#2F2E41"/>
<path opacity="0.2" d="M258.576 218.519C258.572 219.348 258.562 220.508 258.524 221.943C258.519 222.142 258.51 222.346 258.505 222.554C258.458 224.567 258.386 227.053 258.286 229.861C258.282 230.032 258.277 230.197 258.267 230.368C258.134 233.796 257.925 237.789 257.564 244.111C256.894 255.789 255.724 245.716 254.55 249.812C251.29 247.814 247.715 245.721 243.893 243.571C243.204 243.182 242.509 242.793 241.807 242.401C234.163 238.153 225.626 233.702 216.714 229.293C216.362 229.118 216.006 228.942 215.654 228.772C195.239 218.718 172.955 208.939 154.902 202.413C151.418 201.154 148.09 200.017 144.963 199.018C138.375 196.92 132.68 195.452 128.298 194.817C123.735 194.154 120.583 194.391 119.309 195.76C119.262 194.794 119.213 193.869 119.162 192.985C119.143 192.691 119.124 192.402 119.105 192.118C119.134 192.04 119.172 191.966 119.209 191.891C119.214 191.88 119.218 191.869 119.224 191.858C119.233 191.833 119.244 191.809 119.257 191.787C119.271 191.757 119.287 191.729 119.304 191.701C119.32 191.668 119.339 191.636 119.361 191.607C119.404 191.54 119.452 191.469 119.504 191.403C119.543 191.353 119.584 191.306 119.628 191.261C119.642 191.238 119.66 191.218 119.68 191.199C119.699 191.18 119.718 191.157 119.742 191.133C119.752 191.118 119.765 191.105 119.78 191.095C119.817 191.052 119.859 191.013 119.903 190.977C120.073 190.821 120.254 190.679 120.445 190.551C120.512 190.508 120.583 190.465 120.65 190.418C121.129 190.133 121.633 189.892 122.156 189.698C122.337 189.632 122.518 189.57 122.713 189.504C122.784 189.485 122.85 189.461 122.922 189.438C123.026 189.405 123.131 189.372 123.24 189.348C123.782 189.187 124.367 189.049 124.999 188.922C125.189 188.884 125.389 188.846 125.588 188.813C125.75 188.784 125.916 188.756 126.083 188.727C127.494 188.505 129.096 188.339 130.864 188.23C131.031 188.221 131.197 188.211 131.364 188.202C131.558 188.192 131.753 188.183 131.953 188.173C132.119 188.164 132.29 188.159 132.462 188.154C132.628 188.145 132.799 188.14 132.975 188.136C133.455 188.121 133.949 188.107 134.453 188.098C135.889 188.074 137.4 188.083 138.988 188.117C139.725 188.131 140.476 188.154 141.246 188.188C141.293 188.188 141.346 188.192 141.393 188.192C142.063 188.211 142.743 188.244 143.432 188.278C143.917 188.301 144.407 188.325 144.896 188.353C145.357 188.382 145.823 188.41 146.294 188.443C146.66 188.462 147.026 188.491 147.396 188.514C147.71 188.538 148.024 188.562 148.338 188.581C148.713 188.609 149.089 188.637 149.469 188.666C149.992 188.709 150.515 188.751 151.047 188.794C151.575 188.841 152.112 188.888 152.649 188.936C153.186 188.983 153.728 189.035 154.27 189.087C154.327 189.092 154.379 189.097 154.431 189.102C154.926 189.154 155.42 189.201 155.919 189.253C158.686 189.533 161.533 189.859 164.461 190.233C166.21 190.456 167.981 190.694 169.775 190.948C172.499 191.332 175.265 191.749 178.051 192.194C180.841 192.644 183.647 193.119 186.469 193.619C187.182 193.747 187.895 193.875 188.612 194.008C189.487 194.169 190.362 194.333 191.236 194.5C191.788 194.604 192.339 194.709 192.89 194.817C193.546 194.945 194.207 195.073 194.863 195.201C199.184 196.053 203.481 196.963 207.673 197.915C208.362 198.071 209.052 198.232 209.736 198.388C211.105 198.705 212.461 199.027 213.805 199.354C214.176 199.444 214.542 199.534 214.908 199.624C215.825 199.851 216.733 200.079 217.631 200.306V200.311C217.684 200.32 217.736 200.334 217.788 200.349C218.444 200.514 219.095 200.68 219.742 200.851C221.268 201.248 222.768 201.649 224.243 202.053C225.222 202.328 226.192 202.598 227.148 202.873C228.578 203.29 229.981 203.706 231.345 204.123C231.682 204.227 232.02 204.331 232.352 204.431C233.351 204.743 234.33 205.054 235.29 205.364C236.05 205.61 236.792 205.861 237.524 206.112C238.256 206.363 238.974 206.614 239.677 206.865C240.134 207.026 240.58 207.192 241.022 207.353C241.669 207.589 242.296 207.826 242.914 208.068C243.104 208.139 243.29 208.215 243.475 208.286C243.822 208.418 244.16 208.556 244.492 208.693C244.716 208.778 244.934 208.868 245.153 208.963C245.367 209.048 245.586 209.138 245.795 209.228C246.009 209.313 246.218 209.403 246.427 209.498C246.603 209.569 246.774 209.645 246.94 209.72C247.278 209.867 247.615 210.014 247.943 210.166C248.105 210.241 248.266 210.312 248.428 210.388L248.799 210.559C248.851 210.587 248.903 210.611 248.956 210.634C249.36 210.824 249.75 211.013 250.13 211.203C250.486 211.383 250.833 211.563 251.166 211.738C251.561 211.946 251.936 212.15 252.297 212.358C252.369 212.396 252.44 212.439 252.511 212.477C252.754 212.614 252.987 212.756 253.219 212.893C253.676 213.173 254.108 213.447 254.512 213.722C254.912 213.997 255.282 214.267 255.629 214.537C255.629 214.541 255.629 214.541 255.634 214.541C255.8 214.674 255.962 214.807 256.114 214.934C256.361 215.147 256.59 215.351 256.799 215.559C256.869 215.624 256.935 215.692 256.998 215.763C257.026 215.786 257.051 215.811 257.074 215.839C257.174 215.948 257.274 216.057 257.369 216.166C257.483 216.298 257.588 216.431 257.688 216.563C257.735 216.63 257.787 216.696 257.83 216.762C257.887 216.843 257.944 216.928 257.992 217.009C258.035 217.075 258.073 217.146 258.111 217.212C258.212 217.383 258.297 217.562 258.367 217.747C258.419 217.874 258.462 218.003 258.496 218.136C258.532 218.261 258.559 218.39 258.576 218.519Z" fill="black"/>
</g>
<defs>
<clipPath id="clip0_110_3">
<rect width="374" height="271" fill="white"/>
</clipPath>
</defs>
</svg>
